<svg xmlns="http://www.w3.org/2000/svg" width="325.892" height="325.892"><path d="M28.703 26.898h199.288c15.828 0 28.715 12.88 28.715 28.709v23.557H26.118C11.971 79.164.6 68.106.102 53.953c.862-15.189 13.37-27.055 28.601-27.055zm268.463 64.564h-30.192c-1.152 0-2.287.09-3.398.219-.24.027-.48.045-.721.045-.391 0-.744-.138-1.129-.204-.216-.042-.444.006-.66-.06H26.118c-1.285 0-2.558-.069-3.81-.187-.415-.042-.814-.123-1.225-.171-.834-.111-1.667-.21-2.477-.369-.48-.093-.949-.234-1.414-.346-.727-.171-1.453-.33-2.159-.534-.504-.147-.991-.346-1.489-.511-.646-.228-1.309-.435-1.942-.693-.499-.204-.973-.438-1.457-.66-.615-.276-1.219-.541-1.813-.853-.48-.252-.942-.535-1.414-.805-.562-.327-1.132-.643-1.669-.991-.466-.303-.91-.634-1.363-.955-.517-.366-1.039-.724-1.531-1.123a28.989 28.989 0 01-1.273-1.078C.718 81.881.348 81.59 0 81.278v189.007c0 15.829 12.88 28.709 28.715 28.709h268.462c15.829 0 28.715-12.88 28.715-28.709V120.171c-.012-15.835-12.898-28.709-28.726-28.709zm-52.758 139.071c-17.366 0-31.495-14.123-31.495-31.501 0-17.365 14.129-31.489 31.495-31.489 17.365 0 31.489 14.13 31.489 31.489 0 17.366-14.124 31.501-31.489 31.501z"/><path d="M244.408 179.847c-10.593 0-19.198 8.604-19.198 19.197 0 10.58 8.605 19.191 19.198 19.191 10.586 0 19.19-8.605 19.19-19.191 0-10.592-8.61-19.197-19.19-19.197z"/></svg>