<svg id="dots" xmlns="http://www.w3.org/2000/svg" width="864" height="6"><defs><style>.cls-1{fill:#bbb}</style></defs><circle id="Эллипс_2" data-name="Эллипс 2" class="cls-1" cx="3" cy="3" r="3"/><circle id="Эллипс_2_копия" data-name="Эллипс 2 копия" class="cls-1" cx="27" cy="3" r="3"/><circle id="Эллипс_2_копия_2" data-name="Эллипс 2 копия 2" class="cls-1" cx="51" cy="3" r="3"/><circle id="Эллипс_2_копия_3" data-name="Эллипс 2 копия 3" class="cls-1" cx="75" cy="3" r="3"/><circle id="Эллипс_2_копия_4" data-name="Эллипс 2 копия 4" class="cls-1" cx="99" cy="3" r="3"/><circle id="Эллипс_2_копия_5" data-name="Эллипс 2 копия 5" class="cls-1" cx="257" cy="3" r="3"/><circle id="Эллипс_2_копия_6" data-name="Эллипс 2 копия 6" class="cls-1" cx="281" cy="3" r="3"/><circle id="Эллипс_2_копия_7" data-name="Эллипс 2 копия 7" class="cls-1" cx="305" cy="3" r="3"/><circle id="Эллипс_2_копия_8" data-name="Эллипс 2 копия 8" class="cls-1" cx="329" cy="3" r="3"/><circle id="Эллипс_2_копия_9" data-name="Эллипс 2 копия 9" class="cls-1" cx="353" cy="3" r="3"/><circle id="Эллипс_2_копия_10" data-name="Эллипс 2 копия 10" class="cls-1" cx="511" cy="3" r="3"/><circle id="Эллипс_2_копия_11" data-name="Эллипс 2 копия 11" class="cls-1" cx="535" cy="3" r="3"/><circle id="Эллипс_2_копия_12" data-name="Эллипс 2 копия 12" class="cls-1" cx="559" cy="3" r="3"/><circle id="Эллипс_2_копия_13" data-name="Эллипс 2 копия 13" class="cls-1" cx="583" cy="3" r="3"/><circle id="Эллипс_2_копия_14" data-name="Эллипс 2 копия 14" class="cls-1" cx="607" cy="3" r="3"/><circle id="Эллипс_2_копия_15" data-name="Эллипс 2 копия 15" class="cls-1" cx="765" cy="3" r="3"/><circle id="Эллипс_2_копия_16" data-name="Эллипс 2 копия 16" class="cls-1" cx="789" cy="3" r="3"/><circle id="Эллипс_2_копия_17" data-name="Эллипс 2 копия 17" class="cls-1" cx="813" cy="3" r="3"/><circle id="Эллипс_2_копия_18" data-name="Эллипс 2 копия 18" class="cls-1" cx="837" cy="3" r="3"/><circle id="Эллипс_2_копия_19" data-name="Эллипс 2 копия 19" class="cls-1" cx="861" cy="3" r="3"/></svg>